<svg xmlns="http://www.w3.org/2000/svg" width="100" height="210" version="1.1" fill="url(#myGradient)">
<defs>
    <linearGradient id="myGradient" gradientTransform="rotate(0)">
      <stop offset="0%"  stop-color="#1A237E" />
      <stop offset="100%" stop-color="#3949AB" />
    </linearGradient>
  </defs>
<path d="
M0 140
L 0 40
C0 0, 60 0, 60 40
L60 140
L40 140
L40 40
C40 0, 100 0, 100 40
L100 160
C100 210, 0 210, 0 160
L20 160
C20 190, 80 190, 80 160
L80 160
L80 40
C80 20, 60 20, 60 40
L60 140
L40 140
L40 40
C40 20, 20 20, 20 40
L20 140
Z
"/>
</svg>