<?xml version="1.0" standalone="no"?>
<!DOCTYPE svg PUBLIC "-//W3C//DTD SVG 20010904//EN"
 "http://www.w3.org/TR/2001/REC-SVG-20010904/DTD/svg10.dtd">
<svg version="1.0" xmlns="http://www.w3.org/2000/svg"
 width="300.000000pt" height="133.000000pt" viewBox="0 0 300.000000 133.000000"
 preserveAspectRatio="xMidYMid meet">
<metadata>
Created by potrace 1.10, written by Peter Selinger 2001-2011
</metadata>
<g transform="translate(0.000000,133.000000) scale(0.100000,-0.100000)"
fill="#000000" stroke="none">
<path d="M670 1144 c0 -27 4 -43 10 -39 6 3 10 24 10 46 0 21 -4 39 -10 39 -5
0 -10 -21 -10 -46z"/>
<path d="M468 1115 c2 -14 8 -25 13 -25 5 0 9 -6 9 -13 0 -8 7 -14 15 -14 21
0 19 20 -6 51 -26 33 -38 33 -31 1z"/>
<path d="M856 1108 c-17 -23 -21 -58 -8 -58 8 0 42 57 42 71 0 16 -19 9 -34
-13z"/>
<path d="M594 1059 c-3 -5 -13 -9 -23 -9 -10 0 -46 -26 -80 -57 -57 -53 -64
-64 -81 -129 -14 -56 -16 -81 -9 -114 11 -48 58 -150 70 -150 11 0 50 -70 55
-99 2 -14 7 -38 10 -54 4 -15 1 -33 -6 -42 -15 -19 -4 -52 21 -60 13 -4 19
-15 19 -36 0 -17 8 -36 20 -46 11 -10 20 -23 20 -31 0 -18 49 -62 71 -62 9 0
28 14 41 30 13 17 33 43 46 59 12 16 22 36 22 45 0 9 9 30 21 45 15 21 19 35
13 52 -4 13 -7 27 -7 30 1 3 4 24 7 47 5 39 47 125 67 138 5 3 21 28 35 56 31
61 38 138 18 193 -8 22 -16 45 -17 51 -9 41 -143 155 -161 137 -3 -4 -6 -2 -6
3 0 12 -158 15 -166 3z m174 -32 c17 -6 32 -15 32 -19 0 -4 4 -7 10 -6 15 4
81 -73 100 -117 34 -77 16 -179 -47 -262 -32 -44 -73 -133 -73 -160 0 -20 -5
-23 -35 -23 -40 0 -40 2 -4 107 9 28 15 54 12 57 -4 3 -1 6 5 6 6 0 9 6 6 14
-3 8 -1 17 5 20 11 7 4 36 -9 36 -5 0 -16 -22 -25 -50 l-17 -50 -55 0 c-31 0
-53 3 -50 7 4 3 2 12 -4 20 -6 7 -9 13 -6 13 3 0 1 14 -4 30 -12 34 -34 40
-36 10 -1 -11 2 -20 8 -20 5 0 9 -8 9 -19 0 -10 7 -37 15 -60 8 -23 16 -53 18
-66 1 -13 6 -27 10 -31 16 -16 5 -24 -33 -24 -36 0 -40 2 -40 26 0 32 -38 122
-63 149 -30 32 -69 104 -63 114 4 5 2 12 -4 16 -12 8 -11 70 2 115 44 145 189
217 336 167z m-48 -480 c0 -33 -33 -107 -48 -107 -8 0 -13 3 -10 6 3 3 -3 28
-13 57 -10 28 -19 53 -19 54 0 2 20 3 45 3 31 0 45 -4 45 -13z m68 -136 c8 -5
12 -17 10 -27 -3 -17 -14 -19 -118 -19 -104 0 -115 2 -118 19 -2 10 2 22 10
27 17 11 199 11 216 0z m-21 -97 c10 -27 -25 -44 -87 -44 -62 0 -97 17 -87 44
5 13 21 16 87 16 66 0 82 -3 87 -16z m-47 -74 c0 -37 -62 -44 -81 -9 -9 17 -6
19 36 19 25 0 45 -5 45 -10z"/>
<path d="M732 941 c-8 -5 -13 -11 -12 -15 2 -4 -23 -54 -54 -110 -31 -57 -56
-108 -56 -114 0 -24 28 1 52 46 13 26 41 78 62 116 35 65 38 96 8 77z"/>
<path d="M552 849 l-34 -30 33 -30 c36 -32 49 -36 49 -14 0 8 -4 15 -9 15 -17
0 -21 33 -6 50 16 17 20 40 8 40 -5 0 -23 -14 -41 -31z"/>
<path d="M770 871 c0 -4 9 -20 20 -33 19 -25 19 -26 0 -43 -20 -18 -27 -46
-12 -44 4 0 20 16 36 35 l29 35 -28 29 c-29 30 -45 38 -45 21z"/>
<path d="M1273 1053 c-10 -4 -13 -88 -13 -379 0 -326 2 -373 15 -368 12 5 15
45 17 250 l3 245 80 -67 c44 -36 98 -81 120 -99 22 -19 60 -50 84 -70 49 -40
36 -43 116 26 16 15 80 67 140 117 l110 91 3 -245 c2 -224 4 -244 20 -244 16
0 17 25 14 370 -2 318 -5 370 -17 370 -11 0 -15 -11 -15 -38 0 -36 -5 -42
-165 -175 l-165 -138 -73 62 c-39 33 -79 68 -87 77 -8 10 -31 29 -50 44 -90
69 -119 102 -122 139 -2 23 -7 34 -15 32z m187 -256 c83 -71 158 -127 165
-125 7 2 81 60 164 131 83 70 153 127 156 127 3 0 5 -20 5 -44 0 -43 -2 -46
-88 -118 -49 -40 -105 -86 -126 -103 -21 -16 -55 -44 -75 -62 -30 -26 -38 -30
-51 -19 -8 7 -84 68 -167 136 l-153 122 0 45 c0 25 4 43 9 41 6 -1 78 -61 161
-131z"/>
<path d="M2242 1038 c3 -9 56 -13 199 -14 l194 -1 3 -69 2 -69 -54 -58 c-30
-32 -70 -75 -88 -96 -18 -22 -85 -97 -148 -167 -159 -178 -148 -159 -115 -194
35 -36 121 -70 177 -70 25 0 67 12 107 30 52 25 72 41 97 78 51 78 54 99 57
381 l2 261 -218 0 c-168 0 -218 -3 -215 -12z m398 -241 c0 -40 -6 -51 -87
-143 -49 -55 -121 -138 -162 -185 -110 -125 -97 -115 -121 -94 -11 10 -20 22
-20 27 0 5 19 30 43 56 44 48 110 121 162 179 17 18 64 71 105 117 41 47 76
85 78 86 1 0 2 -19 2 -43z m-1 -189 c-1 -51 -5 -97 -8 -103 -3 -5 -6 -16 -7
-23 -5 -29 -60 -94 -98 -117 -23 -13 -60 -27 -83 -31 -44 -7 -113 2 -113 14 0
4 61 77 136 162 75 85 141 163 147 173 23 34 29 16 26 -75z"/>
<path d="M320 977 c0 -13 40 -37 60 -37 20 0 9 20 -20 35 -36 18 -40 19 -40 2z"/>
<path d="M992 968 c-22 -13 -30 -24 -23 -31 12 -12 74 30 66 44 -8 11 -4 12
-43 -13z"/>
<path d="M265 791 c-11 -18 1 -26 37 -25 21 1 33 6 33 15 0 17 -60 25 -70 10z"/>
<path d="M1017 784 c-16 -16 -5 -24 34 -24 28 0 39 4 37 13 -5 13 -60 22 -71
11z"/>
<path d="M343 608 c-18 -11 -33 -24 -33 -28 0 -18 21 -21 36 -6 8 9 19 16 24
16 11 0 21 28 12 33 -4 2 -22 -5 -39 -15z"/>
<path d="M966 613 c-12 -12 -6 -23 24 -38 35 -18 40 -19 40 -2 0 15 -54 49
-64 40z"/>
</g>
</svg>
